<svg width="500" height="500" viewBox="0 0 500 500" fill="none" xmlns="http://www.w3.org/2000/svg">
<rect x="10" y="10" width="480" height="480" rx="40" fill="#F6F5F5" stroke="black" stroke-width="20"/>
<path d="M137.125 371H63.0625V131H140.406C163.688 131 183.609 135.805 200.172 145.414C216.734 154.945 229.43 168.656 238.258 186.547C247.086 204.359 251.5 225.687 251.5 250.531C251.5 275.531 247.047 297.055 238.141 315.102C229.234 333.07 216.266 346.898 199.234 356.586C182.203 366.195 161.5 371 137.125 371ZM92.125 345.219H135.25C155.094 345.219 171.539 341.391 184.586 333.734C197.633 326.078 207.359 315.18 213.766 301.039C220.172 286.898 223.375 270.062 223.375 250.531C223.375 231.156 220.211 214.477 213.883 200.492C207.555 186.43 198.102 175.648 185.523 168.148C172.945 160.57 157.281 156.781 138.531 156.781H92.125V345.219ZM300.25 371V131H444.156V156.781H329.313V237.875H433.375V263.656H329.313V371H300.25Z" fill="black"/>
</svg>
