<svg width="500" height="500" viewBox="0 0 500 500" fill="none" xmlns="http://www.w3.org/2000/svg">
<rect width="500" height="500" rx="50" fill="url(#paint0_linear_2_5)"/>
<path d="M139 371H57.6719V131H140.641C164.469 131 184.938 135.805 202.047 145.414C219.234 154.945 232.438 168.656 241.656 186.547C250.875 204.437 255.484 225.844 255.484 250.766C255.484 275.766 250.836 297.25 241.539 315.219C232.32 333.187 219 346.977 201.578 356.586C184.234 366.195 163.375 371 139 371ZM101.148 333.383H136.891C153.609 333.383 167.555 330.336 178.727 324.242C189.898 318.07 198.297 308.891 203.922 296.703C209.547 284.437 212.359 269.125 212.359 250.766C212.359 232.406 209.547 217.172 203.922 205.062C198.297 192.875 189.977 183.773 178.961 177.758C168.023 171.664 154.43 168.617 138.18 168.617H101.148V333.383ZM296.793 371V131H450.543V167.445H340.27V232.602H439.996V269.047H340.27V371H296.793Z" fill="#F1F1F1"/>
<defs>
<linearGradient id="paint0_linear_2_5" x1="500" y1="0" x2="0" y2="500" gradientUnits="userSpaceOnUse">
<stop stop-color="#2F3FC8"/>
<stop offset="0.5" stop-color="#162399"/>
<stop offset="1" stop-color="#2F3FC8"/>
</linearGradient>
</defs>
</svg>
