<svg width="3250" height="399" viewBox="0 0 3250 399" fill="none" xmlns="http://www.w3.org/2000/svg">
<path d="M518 320H436.672V80H519.641C543.469 80 563.938 84.8047 581.047 94.4141C598.234 103.945 611.438 117.656 620.656 135.547C629.875 153.437 634.484 174.844 634.484 199.766C634.484 224.766 629.836 246.25 620.539 264.219C611.32 282.187 598 295.977 580.578 305.586C563.234 315.195 542.375 320 518 320ZM480.148 282.383H515.891C532.609 282.383 546.555 279.336 557.727 273.242C568.898 267.07 577.297 257.891 582.922 245.703C588.547 233.437 591.359 218.125 591.359 199.766C591.359 181.406 588.547 166.172 582.922 154.062C577.297 141.875 568.977 132.773 557.961 126.758C547.023 120.664 533.43 117.617 517.18 117.617H480.148V282.383ZM673.598 320V167.273H697.064V320H673.598ZM685.53 141.818C680.956 141.818 677.012 140.26 673.698 137.145C670.45 134.029 668.826 130.284 668.826 125.909C668.826 121.534 670.45 117.789 673.698 114.673C677.012 111.558 680.956 110 685.53 110C690.104 110 694.015 111.558 697.263 114.673C700.578 117.789 702.235 121.534 702.235 125.909C702.235 130.284 700.578 134.029 697.263 137.145C694.015 140.26 690.104 141.818 685.53 141.818ZM802.089 323.182C787.771 323.182 775.441 319.801 765.1 313.04C754.76 306.278 746.805 296.965 741.237 285.099C735.669 273.234 732.885 259.678 732.885 244.432C732.885 228.92 735.735 215.232 741.436 203.366C747.203 191.435 755.224 182.121 765.498 175.426C775.839 168.665 787.904 165.284 801.691 165.284C812.43 165.284 822.108 167.273 830.725 171.25C839.343 175.227 846.403 180.795 851.904 187.955C857.406 195.114 860.82 203.466 862.146 213.011H838.68C836.89 206.051 832.913 199.886 826.748 194.517C820.65 189.081 812.43 186.364 802.089 186.364C792.941 186.364 784.921 188.75 778.027 193.523C771.199 198.229 765.863 204.891 762.018 213.509C758.24 222.06 756.35 232.102 756.35 243.636C756.35 255.436 758.207 265.71 761.919 274.46C765.697 283.21 771 290.005 777.828 294.844C784.722 299.683 792.809 302.102 802.089 302.102C808.188 302.102 813.723 301.042 818.694 298.92C823.666 296.799 827.875 293.75 831.322 289.773C834.769 285.795 837.222 281.023 838.68 275.455H862.146C860.82 284.47 857.539 292.59 852.302 299.815C847.132 306.974 840.271 312.675 831.72 316.918C823.235 321.094 813.358 323.182 802.089 323.182ZM962.87 167.273V187.159H883.723V167.273H962.87ZM906.791 130.682H930.257V276.25C930.257 282.879 931.218 287.85 933.14 291.165C935.129 294.413 937.648 296.6 940.697 297.727C943.813 298.788 947.094 299.318 950.541 299.318C953.126 299.318 955.247 299.186 956.904 298.92C958.562 298.589 959.887 298.324 960.882 298.125L965.654 319.205C964.064 319.801 961.843 320.398 958.993 320.994C956.142 321.657 952.529 321.989 948.154 321.989C941.526 321.989 935.029 320.563 928.666 317.713C922.368 314.863 917.132 310.521 912.956 304.688C908.846 298.854 906.791 291.496 906.791 282.614V130.682ZM998.169 320V167.273H1021.63V320H998.169ZM1010.1 141.818C1005.53 141.818 1001.58 140.26 998.268 137.145C995.02 134.029 993.396 130.284 993.396 125.909C993.396 121.534 995.02 117.789 998.268 114.673C1001.58 111.558 1005.53 110 1010.1 110C1014.67 110 1018.59 111.558 1021.83 114.673C1025.15 117.789 1026.81 121.534 1026.81 125.909C1026.81 130.284 1025.15 134.029 1021.83 137.145C1018.59 140.26 1014.67 141.818 1010.1 141.818ZM1126.66 323.182C1112.87 323.182 1100.77 319.901 1090.37 313.338C1080.03 306.776 1071.94 297.595 1066.11 285.795C1060.34 273.996 1057.45 260.208 1057.45 244.432C1057.45 228.523 1060.34 214.635 1066.11 202.77C1071.94 190.904 1080.03 181.69 1090.37 175.128C1100.77 168.565 1112.87 165.284 1126.66 165.284C1140.45 165.284 1152.51 168.565 1162.85 175.128C1173.26 181.69 1181.35 190.904 1187.11 202.77C1192.95 214.635 1195.86 228.523 1195.86 244.432C1195.86 260.208 1192.95 273.996 1187.11 285.795C1181.35 297.595 1173.26 306.776 1162.85 313.338C1152.51 319.901 1140.45 323.182 1126.66 323.182ZM1126.66 302.102C1137.13 302.102 1145.75 299.418 1152.51 294.048C1159.27 288.679 1164.28 281.619 1167.53 272.869C1170.77 264.119 1172.4 254.64 1172.4 244.432C1172.4 234.223 1170.77 224.711 1167.53 215.895C1164.28 207.079 1159.27 199.953 1152.51 194.517C1145.75 189.081 1137.13 186.364 1126.66 186.364C1116.19 186.364 1107.57 189.081 1100.81 194.517C1094.05 199.953 1089.04 207.079 1085.79 215.895C1082.54 224.711 1080.92 234.223 1080.92 244.432C1080.92 254.64 1082.54 264.119 1085.79 272.869C1089.04 281.619 1094.05 288.679 1100.81 294.048C1107.57 299.418 1116.19 302.102 1126.66 302.102ZM1255.15 228.125V320H1231.68V167.273H1254.35V191.136H1256.34C1259.92 183.381 1265.36 177.15 1272.65 172.443C1279.94 167.67 1289.35 165.284 1300.89 165.284C1311.23 165.284 1320.28 167.405 1328.03 171.648C1335.79 175.824 1341.82 182.188 1346.13 190.739C1350.44 199.223 1352.59 209.962 1352.59 222.955V320H1329.13V224.545C1329.13 212.547 1326.01 203.201 1319.78 196.506C1313.55 189.744 1305 186.364 1294.13 186.364C1286.64 186.364 1279.94 187.988 1274.04 191.236C1268.21 194.484 1263.6 199.223 1260.22 205.455C1256.84 211.686 1255.15 219.242 1255.15 228.125ZM1418.94 228.125V320H1395.47V167.273H1418.14V191.136H1420.13C1423.71 183.381 1429.15 177.15 1436.44 172.443C1443.73 167.67 1453.14 165.284 1464.68 165.284C1475.02 165.284 1484.07 167.405 1491.82 171.648C1499.58 175.824 1505.61 182.188 1509.92 190.739C1514.23 199.223 1516.38 209.962 1516.38 222.955V320H1492.92V224.545C1492.92 212.547 1489.8 203.201 1483.57 196.506C1477.34 189.744 1468.79 186.364 1457.92 186.364C1450.43 186.364 1443.73 187.988 1437.83 191.236C1432 194.484 1427.39 199.223 1424.01 205.455C1420.63 211.686 1418.94 219.242 1418.94 228.125ZM1604.21 323.58C1594.53 323.58 1585.74 321.757 1577.86 318.111C1569.97 314.399 1563.7 309.062 1559.06 302.102C1554.42 295.076 1552.1 286.591 1552.1 276.648C1552.1 267.898 1553.83 260.805 1557.27 255.369C1560.72 249.867 1565.33 245.559 1571.09 242.443C1576.86 239.328 1583.23 237.008 1590.19 235.483C1597.21 233.892 1604.27 232.633 1611.36 231.705C1620.65 230.511 1628.17 229.616 1633.94 229.02C1639.77 228.357 1644.01 227.263 1646.66 225.739C1649.38 224.214 1650.74 221.562 1650.74 217.784V216.989C1650.74 207.178 1648.06 199.555 1642.69 194.119C1637.38 188.684 1629.33 185.966 1618.52 185.966C1607.32 185.966 1598.54 188.419 1592.17 193.324C1585.81 198.229 1581.34 203.466 1578.75 209.034L1556.48 201.08C1560.46 191.799 1565.76 184.574 1572.39 179.403C1579.08 174.167 1586.37 170.521 1594.26 168.466C1602.22 166.345 1610.04 165.284 1617.73 165.284C1622.63 165.284 1628.27 165.881 1634.63 167.074C1641.06 168.201 1647.26 170.554 1653.23 174.134C1659.26 177.713 1664.26 183.116 1668.24 190.341C1672.22 197.566 1674.21 207.244 1674.21 219.375V320H1650.74V299.318H1649.55C1647.96 302.633 1645.3 306.179 1641.59 309.957C1637.88 313.736 1632.94 316.951 1626.78 319.602C1620.61 322.254 1613.09 323.58 1604.21 323.58ZM1607.79 302.5C1617.07 302.5 1624.89 300.677 1631.25 297.031C1637.68 293.385 1642.52 288.679 1645.77 282.912C1649.08 277.145 1650.74 271.08 1650.74 264.716V243.239C1649.75 244.432 1647.56 245.526 1644.18 246.52C1640.86 247.448 1637.02 248.277 1632.64 249.006C1628.33 249.669 1624.13 250.265 1620.02 250.795C1615.97 251.259 1612.69 251.657 1610.17 251.989C1604.07 252.784 1598.37 254.077 1593.07 255.866C1587.83 257.59 1583.59 260.208 1580.34 263.722C1577.16 267.169 1575.57 271.875 1575.57 277.841C1575.57 285.994 1578.59 292.159 1584.62 296.335C1590.72 300.445 1598.44 302.5 1607.79 302.5ZM1717.04 320V167.273H1740.5V320H1717.04ZM1728.97 141.818C1724.39 141.818 1720.45 140.26 1717.14 137.145C1713.89 134.029 1712.26 130.284 1712.26 125.909C1712.26 121.534 1713.89 117.789 1717.14 114.673C1720.45 111.558 1724.39 110 1728.97 110C1733.54 110 1737.45 111.558 1740.7 114.673C1744.02 117.789 1745.67 121.534 1745.67 125.909C1745.67 130.284 1744.02 134.029 1740.7 137.145C1737.45 140.26 1733.54 141.818 1728.97 141.818ZM1783.48 320V167.273H1806.15V190.341H1807.74C1810.53 182.784 1815.56 176.652 1822.86 171.946C1830.15 167.24 1838.37 164.886 1847.52 164.886C1849.24 164.886 1851.39 164.919 1853.98 164.986C1856.56 165.052 1858.52 165.152 1859.84 165.284V189.148C1859.05 188.949 1857.23 188.651 1854.38 188.253C1851.59 187.789 1848.64 187.557 1845.53 187.557C1838.1 187.557 1831.47 189.115 1825.64 192.23C1819.87 195.279 1815.3 199.522 1811.92 204.957C1808.6 210.327 1806.95 216.458 1806.95 223.352V320H1783.48ZM1947.05 323.182C1932.33 323.182 1919.64 319.934 1908.96 313.438C1898.36 306.875 1890.17 297.727 1884.4 285.994C1878.7 274.195 1875.85 260.473 1875.85 244.83C1875.85 229.186 1878.7 215.398 1884.4 203.466C1890.17 191.468 1898.19 182.121 1908.47 175.426C1918.81 168.665 1930.87 165.284 1944.66 165.284C1952.61 165.284 1960.47 166.61 1968.23 169.261C1975.98 171.913 1983.04 176.222 1989.4 182.188C1995.77 188.087 2000.84 195.909 2004.62 205.653C2008.4 215.398 2010.29 227.396 2010.29 241.648V251.591H1892.56V231.307H1986.42C1986.42 222.689 1984.7 215 1981.25 208.239C1977.87 201.477 1973.03 196.141 1966.73 192.23C1960.5 188.319 1953.15 186.364 1944.66 186.364C1935.31 186.364 1927.23 188.684 1920.4 193.324C1913.64 197.898 1908.43 203.864 1904.79 211.222C1901.14 218.58 1899.32 226.468 1899.32 234.886V248.409C1899.32 259.943 1901.31 269.721 1905.29 277.741C1909.33 285.696 1914.93 291.761 1922.09 295.938C1929.25 300.047 1937.57 302.102 1947.05 302.102C1953.21 302.102 1958.78 301.241 1963.75 299.517C1968.79 297.727 1973.13 295.076 1976.78 291.562C1980.42 287.983 1983.24 283.542 1985.23 278.239L2007.9 284.602C2005.51 292.292 2001.5 299.053 1995.87 304.886C1990.23 310.653 1983.27 315.161 1974.99 318.409C1966.7 321.591 1957.39 323.182 1947.05 323.182ZM2126.93 320V80H2280.68V116.445H2170.4V181.602H2270.13V218.047H2170.4V320H2126.93ZM2318.09 320V167.273H2340.76V190.341H2342.35C2345.14 182.784 2350.17 176.652 2357.47 171.946C2364.76 167.24 2372.98 164.886 2382.12 164.886C2383.85 164.886 2386 164.919 2388.59 164.986C2391.17 165.052 2393.13 165.152 2394.45 165.284V189.148C2393.66 188.949 2391.84 188.651 2388.99 188.253C2386.2 187.789 2383.25 187.557 2380.14 187.557C2372.71 187.557 2366.08 189.115 2360.25 192.23C2354.48 195.279 2349.91 199.522 2346.53 204.957C2343.21 210.327 2341.56 216.458 2341.56 223.352V320H2318.09ZM2467.21 323.58C2457.54 323.58 2448.75 321.757 2440.86 318.111C2432.98 314.399 2426.71 309.062 2422.07 302.102C2417.43 295.076 2415.11 286.591 2415.11 276.648C2415.11 267.898 2416.83 260.805 2420.28 255.369C2423.73 249.867 2428.34 245.559 2434.1 242.443C2439.87 239.328 2446.23 237.008 2453.19 235.483C2460.22 233.892 2467.28 232.633 2474.37 231.705C2483.65 230.511 2491.18 229.616 2496.94 229.02C2502.78 228.357 2507.02 227.263 2509.67 225.739C2512.39 224.214 2513.75 221.562 2513.75 217.784V216.989C2513.75 207.178 2511.06 199.555 2505.69 194.119C2500.39 188.684 2492.34 185.966 2481.53 185.966C2470.33 185.966 2461.55 188.419 2455.18 193.324C2448.82 198.229 2444.34 203.466 2441.76 209.034L2419.49 201.08C2423.46 191.799 2428.77 184.574 2435.4 179.403C2442.09 174.167 2449.38 170.521 2457.27 168.466C2465.22 166.345 2473.05 165.284 2480.74 165.284C2485.64 165.284 2491.28 165.881 2497.64 167.074C2504.07 168.201 2510.27 170.554 2516.23 174.134C2522.27 177.713 2527.27 183.116 2531.25 190.341C2535.22 197.566 2537.21 207.244 2537.21 219.375V320H2513.75V299.318H2512.55C2510.96 302.633 2508.31 306.179 2504.6 309.957C2500.89 313.736 2495.95 316.951 2489.78 319.602C2483.62 322.254 2476.1 323.58 2467.21 323.58ZM2470.79 302.5C2480.07 302.5 2487.9 300.677 2494.26 297.031C2500.69 293.385 2505.53 288.679 2508.78 282.912C2512.09 277.145 2513.75 271.08 2513.75 264.716V243.239C2512.75 244.432 2510.57 245.526 2507.19 246.52C2503.87 247.448 2500.03 248.277 2495.65 249.006C2491.34 249.669 2487.13 250.265 2483.02 250.795C2478.98 251.259 2475.7 251.657 2473.18 251.989C2467.08 252.784 2461.38 254.077 2456.08 255.866C2450.84 257.59 2446.6 260.208 2443.35 263.722C2440.17 267.169 2438.58 271.875 2438.58 277.841C2438.58 285.994 2441.59 292.159 2447.63 296.335C2453.72 300.445 2461.45 302.5 2470.79 302.5ZM2603.51 228.125V320H2580.04V167.273H2602.71V191.136H2604.7C2608.28 183.381 2613.72 177.15 2621.01 172.443C2628.3 167.67 2637.71 165.284 2649.25 165.284C2659.59 165.284 2668.64 167.405 2676.39 171.648C2684.15 175.824 2690.18 182.188 2694.49 190.739C2698.8 199.223 2700.95 209.962 2700.95 222.955V320H2677.49V224.545C2677.49 212.547 2674.37 203.201 2668.14 196.506C2661.91 189.744 2653.36 186.364 2642.49 186.364C2635 186.364 2628.3 187.988 2622.4 191.236C2616.57 194.484 2611.96 199.223 2608.58 205.455C2605.2 211.686 2603.51 219.242 2603.51 228.125ZM2805.88 323.182C2791.56 323.182 2779.23 319.801 2768.89 313.04C2758.55 306.278 2750.59 296.965 2745.03 285.099C2739.46 273.234 2736.67 259.678 2736.67 244.432C2736.67 228.92 2739.52 215.232 2745.22 203.366C2750.99 191.435 2759.01 182.121 2769.29 175.426C2779.63 168.665 2791.69 165.284 2805.48 165.284C2816.22 165.284 2825.9 167.273 2834.51 171.25C2843.13 175.227 2850.19 180.795 2855.69 187.955C2861.2 195.114 2864.61 203.466 2865.94 213.011H2842.47C2840.68 206.051 2836.7 199.886 2830.54 194.517C2824.44 189.081 2816.22 186.364 2805.88 186.364C2796.73 186.364 2788.71 188.75 2781.82 193.523C2774.99 198.229 2769.65 204.891 2765.81 213.509C2762.03 222.06 2760.14 232.102 2760.14 243.636C2760.14 255.436 2762 265.71 2765.71 274.46C2769.49 283.21 2774.79 290.005 2781.62 294.844C2788.51 299.683 2796.6 302.102 2805.88 302.102C2811.98 302.102 2817.51 301.042 2822.48 298.92C2827.45 296.799 2831.66 293.75 2835.11 289.773C2838.56 285.795 2841.01 281.023 2842.47 275.455H2865.94C2864.61 284.47 2861.33 292.59 2856.09 299.815C2850.92 306.974 2844.06 312.675 2835.51 316.918C2827.02 321.094 2817.15 323.182 2805.88 323.182ZM2794.74 319.205H2814.23L2812.64 327.159C2817.81 327.955 2822.55 330.109 2826.86 333.622C2831.17 337.202 2833.32 342.869 2833.32 350.625C2833.32 359.176 2829.77 366.136 2822.68 371.506C2815.66 376.941 2805.28 379.659 2791.56 379.659L2790.76 364.148C2796.93 364.148 2802.03 363.153 2806.08 361.165C2810.19 359.242 2812.24 355.994 2812.24 351.42C2812.24 346.847 2810.55 343.731 2807.17 342.074C2803.79 340.417 2798.32 339.29 2790.76 338.693L2794.74 319.205ZM2945.18 323.58C2935.5 323.58 2926.72 321.757 2918.83 318.111C2910.94 314.399 2904.68 309.062 2900.04 302.102C2895.4 295.076 2893.08 286.591 2893.08 276.648C2893.08 267.898 2894.8 260.805 2898.25 255.369C2901.7 249.867 2906.3 245.559 2912.07 242.443C2917.84 239.328 2924.2 237.008 2931.16 235.483C2938.19 233.892 2945.25 232.633 2952.34 231.705C2961.62 230.511 2969.15 229.616 2974.91 229.02C2980.75 228.357 2984.99 227.263 2987.64 225.739C2990.36 224.214 2991.72 221.562 2991.72 217.784V216.989C2991.72 207.178 2989.03 199.555 2983.66 194.119C2978.36 188.684 2970.31 185.966 2959.5 185.966C2948.3 185.966 2939.51 188.419 2933.15 193.324C2926.79 198.229 2922.31 203.466 2919.73 209.034L2897.45 201.08C2901.43 191.799 2906.74 184.574 2913.36 179.403C2920.06 174.167 2927.35 170.521 2935.24 168.466C2943.19 166.345 2951.02 165.284 2958.7 165.284C2963.61 165.284 2969.24 165.881 2975.61 167.074C2982.04 168.201 2988.24 170.554 2994.2 174.134C3000.23 177.713 3005.24 183.116 3009.22 190.341C3013.19 197.566 3015.18 207.244 3015.18 219.375V320H2991.72V299.318H2990.52C2988.93 302.633 2986.28 306.179 2982.57 309.957C2978.86 313.736 2973.92 316.951 2967.75 319.602C2961.59 322.254 2954.06 323.58 2945.18 323.58ZM2948.76 302.5C2958.04 302.5 2965.86 300.677 2972.23 297.031C2978.66 293.385 2983.5 288.679 2986.74 282.912C2990.06 277.145 2991.72 271.08 2991.72 264.716V243.239C2990.72 244.432 2988.53 245.526 2985.15 246.52C2981.84 247.448 2977.99 248.277 2973.62 249.006C2969.31 249.669 2965.1 250.265 2960.99 250.795C2956.95 251.259 2953.67 251.657 2951.15 251.989C2945.05 252.784 2939.35 254.077 2934.05 255.866C2928.81 257.59 2924.57 260.208 2921.32 263.722C2918.14 267.169 2916.55 271.875 2916.55 277.841C2916.55 285.994 2919.56 292.159 2925.59 296.335C2931.69 300.445 2939.42 302.5 2948.76 302.5ZM3058.01 320V167.273H3081.48V320H3058.01ZM3069.94 141.818C3065.37 141.818 3061.43 140.26 3058.11 137.145C3054.86 134.029 3053.24 130.284 3053.24 125.909C3053.24 121.534 3054.86 117.789 3058.11 114.673C3061.43 111.558 3065.37 110 3069.94 110C3074.52 110 3078.43 111.558 3081.68 114.673C3084.99 117.789 3086.65 121.534 3086.65 125.909C3086.65 130.284 3084.99 134.029 3081.68 137.145C3078.43 140.26 3074.52 141.818 3069.94 141.818ZM3232.64 201.477L3211.56 207.443C3210.23 203.93 3208.28 200.516 3205.69 197.202C3203.17 193.821 3199.73 191.037 3195.35 188.849C3190.98 186.662 3185.38 185.568 3178.55 185.568C3169.2 185.568 3161.41 187.723 3155.18 192.031C3149.02 196.274 3145.94 201.676 3145.94 208.239C3145.94 214.072 3148.06 218.679 3152.3 222.06C3156.54 225.44 3163.17 228.258 3172.19 230.511L3194.86 236.08C3208.51 239.394 3218.69 244.465 3225.38 251.293C3232.08 258.054 3235.42 266.771 3235.42 277.443C3235.42 286.193 3232.9 294.015 3227.87 300.909C3222.9 307.803 3215.94 313.239 3206.99 317.216C3198.04 321.193 3187.63 323.182 3175.76 323.182C3160.19 323.182 3147.29 319.801 3137.09 313.04C3126.88 306.278 3120.41 296.402 3117.7 283.409L3139.97 277.841C3142.09 286.061 3146.1 292.225 3152 296.335C3157.97 300.445 3165.76 302.5 3175.37 302.5C3186.3 302.5 3194.99 300.18 3201.42 295.54C3207.91 290.833 3211.16 285.199 3211.16 278.636C3211.16 273.333 3209.31 268.892 3205.59 265.312C3201.88 261.667 3196.18 258.949 3188.49 257.159L3163.04 251.193C3149.05 247.879 3138.78 242.741 3132.21 235.781C3125.72 228.755 3122.47 219.972 3122.47 209.432C3122.47 200.814 3124.89 193.191 3129.73 186.562C3134.63 179.934 3141.29 174.73 3149.71 170.952C3158.2 167.173 3167.81 165.284 3178.55 165.284C3193.66 165.284 3205.53 168.598 3214.15 175.227C3222.83 181.856 3228.99 190.606 3232.64 201.477Z" fill="black"/>
<g clip-path="url(#clip0_4_16)">
<path d="M0 85.875C0 48.4023 30.4263 18 67.9286 18H271.714H294.357C306.881 18 317 28.1105 317 40.625V266.875C317 279.389 306.881 289.5 294.357 289.5V334.75C306.881 334.75 317 344.861 317 357.375C317 369.889 306.881 380 294.357 380H271.714H67.9286C30.4263 380 0 349.598 0 312.125V85.875ZM45.2857 312.125C45.2857 324.639 55.4042 334.75 67.9286 334.75H249.071V289.5H67.9286C55.4042 289.5 45.2857 299.611 45.2857 312.125ZM175.058 218.655C172.44 221.271 170.671 221.625 169.821 221.625C168.972 221.625 167.203 221.271 164.585 218.655C161.896 216.039 158.925 211.585 156.236 205.293C151.849 195.041 148.594 181.041 147.603 165.062H192.181C191.12 181.041 187.936 195.041 183.549 205.293C180.86 211.585 177.888 216.039 175.199 218.655H175.058ZM205.272 211.656C210.437 198.717 213.763 182.597 214.753 165.062H236.759C233.434 184.789 221.617 201.616 205.272 211.656ZM205.272 95.8441C221.688 105.884 233.504 122.711 236.759 142.438H214.753C213.763 124.974 210.437 108.854 205.272 95.8441ZM260.393 153.75C260.393 129.748 250.851 106.729 233.865 89.7568C216.88 72.7848 193.842 63.25 169.821 63.25C145.8 63.25 122.763 72.7848 105.778 89.7568C88.7923 106.729 79.25 129.748 79.25 153.75C79.25 177.752 88.7923 200.771 105.778 217.743C122.763 234.715 145.8 244.25 169.821 244.25C193.842 244.25 216.88 234.715 233.865 217.743C250.851 200.771 260.393 177.752 260.393 153.75ZM102.813 165.062H124.819C125.809 182.526 129.135 198.646 134.3 211.656C117.884 201.616 106.068 184.789 102.813 165.062ZM124.819 142.438H102.813C106.138 122.711 117.955 105.884 134.3 95.8441C129.135 108.783 125.809 124.903 124.819 142.438ZM164.515 88.8445C167.133 86.2285 168.902 85.875 169.751 85.875C170.6 85.875 172.369 86.2285 174.987 88.8445C177.676 91.4605 180.648 95.9148 183.336 102.207C187.723 112.459 190.978 126.459 191.969 142.438H147.391C148.452 126.459 151.636 112.459 156.023 102.207C158.712 95.9148 161.684 91.4605 164.373 88.8445H164.515Z" fill="url(#paint0_linear_4_16)"/>
</g>
<defs>
<linearGradient id="paint0_linear_4_16" x1="158.5" y1="18" x2="158.5" y2="380" gradientUnits="userSpaceOnUse">
<stop stop-color="#2637D6"/>
<stop offset="1" stop-color="#0D123D"/>
</linearGradient>
<clipPath id="clip0_4_16">
<rect width="317" height="362" fill="white" transform="translate(0 18)"/>
</clipPath>
</defs>
</svg>
